PathFileType	4	(X/Y/Z)	 s01c0102.trc
DataRate	CameraRate	NumFrames	NumMarkers	Units	OrigDataRate	OrigDataStartFrame	OrigNumFrames
200	200	7	48	mm	200	1	2000
Frame#	Time	racr			lacr			c7			jug			rlel			rdr			llel			ldr			s2			lic			ric			lasi			rasi			rpsi			lpsi			rgt			lgt			rth1			rth2			rth3			rth4			rlfc			rsh1			rsh2			rsh3			rsh4			rlmal			rmmal			rcal			rtoe			rmt5			lth1			lth2			lth4			lth3			llfc			lsh1			lsh2			lsh3			lsh4			llmal			lmmal			lcal			ltoe			lmt5			SBIKE			LBIKE			RBIKE			
		X1	Y1	Z1	X2	Y2	Z2	X3	Y3	Z3	X4	Y4	Z4	X5	Y5	Z5	X6	Y6	Z6	X7	Y7	Z7	X8	Y8	Z8	X9	Y9	Z9	X10	Y10	Z10	X11	Y11	Z11	X12	Y12	Z12	X13	Y13	Z13	X14	Y14	Z14	X15	Y15	Z15	X16	Y16	Z16	X17	Y17	Z17	X18	Y18	Z18	X19	Y19	Z19	X20	Y20	Z20	X21	Y21	Z21	X22	Y22	Z22	X23	Y23	Z23	X24	Y24	Z24	X25	Y25	Z25	X26	Y26	Z26	X27	Y27	Z27	X28	Y28	Z28	X29	Y29	Z29	X30	Y30	Z30	X31	Y31	Z31	X32	Y32	Z32	X33	Y33	Z33	X34	Y34	Z34	X35	Y35	Z35	X36	Y36	Z36	X37	Y37	Z37	X38	Y38	Z38	X39	Y39	Z39	X40	Y40	Z40	X41	Y41	Z41	X42	Y42	Z42	X43	Y43	Z43	X44	Y44	Z44	X45	Y45	Z45	X46	Y46	Z46	X47	Y47	Z47	X48	Y48	Z48	
1	0.0050	494.064689	1327.647042	-125.479756	494.817975	1338.187273	-423.944918	NaN	NaN	NaN	NaN	NaN	NaN	575.707850	1065.948561	-30.479301	736.520607	861.409820	-67.792136	592.368162	1072.073948	-475.799522	NaN	NaN	NaN	-74.663294	1153.284768	-244.169722	125.635176	1156.967692	-453.890804	93.260813	1137.449746	-93.752479	88.857269	1099.026223	-394.448449	109.343685	1084.168719	-113.360050	-40.954648	1188.408087	-189.477411	-45.396654	1192.569323	-296.181365	17.619378	1023.338054	-59.306567	26.311004	1049.480656	-455.552900	80.815603	898.662588	-40.186481	125.719778	829.775816	-49.284244	169.233974	751.733160	-65.114342	172.498318	858.108290	-62.819991	200.012818	648.571407	-90.700146	139.881403	544.360505	-59.316503	114.779808	463.461141	-63.319787	79.640152	382.002165	-77.194605	159.865564	449.082043	-100.762999	28.723206	263.816444	-100.108582	NaN	NaN	NaN	NaN	NaN	NaN	NaN	NaN	NaN	NaN	NaN	NaN	NaN	NaN	NaN	NaN	NaN	NaN	NaN	NaN	NaN	NaN	NaN	NaN	NaN	NaN	NaN	NaN	NaN	NaN	NaN	NaN	NaN	NaN	NaN	NaN	NaN	NaN	NaN	NaN	NaN	NaN	NaN	NaN	NaN	137.415225	525.407192	-361.189375	NaN	NaN	NaN	NaN	NaN	NaN	NaN	NaN	NaN	-12.002627	84.740668	-453.702305	-20.274101	81.047847	-53.461379	
2	0.0100	494.063576	1327.643110	-125.501440	494.807438	1338.197031	-423.938400	NaN	NaN	NaN	NaN	NaN	NaN	575.711560	1065.934738	-30.501211	736.509100	861.414845	-67.776473	592.333672	1072.118964	-475.813982	NaN	NaN	NaN	-74.650601	1153.296582	-244.177675	125.601938	1157.049542	-453.928369	93.246740	1137.446597	-93.749349	88.859914	1099.038592	-394.441026	109.355297	1084.149271	-113.356551	-40.947658	1188.413819	-189.472401	-45.383025	1192.579810	-296.162708	17.619754	1023.327386	-59.317178	26.316811	1049.493744	-455.543691	80.818797	898.659791	-40.176269	125.740041	829.761040	-49.311148	169.241301	751.746271	-65.126541	172.489170	858.146617	-62.811858	200.019731	648.592714	-90.720658	139.888396	544.384290	-59.330039	114.789980	463.492749	-63.308352	79.641248	382.001073	-77.199693	159.864933	449.100395	-100.756192	28.745842	263.823186	-100.106344	NaN	NaN	NaN	NaN	NaN	NaN	NaN	NaN	NaN	NaN	NaN	NaN	NaN	NaN	NaN	NaN	NaN	NaN	NaN	NaN	NaN	NaN	NaN	NaN	NaN	NaN	NaN	NaN	NaN	NaN	NaN	NaN	NaN	NaN	NaN	NaN	NaN	NaN	NaN	NaN	NaN	NaN	NaN	NaN	NaN	137.420933	525.401044	-361.192802	NaN	NaN	NaN	NaN	NaN	NaN	NaN	NaN	NaN	-12.004143	84.741188	-453.713875	-20.262561	81.020699	-53.482463	
3	0.0150	494.068634	1327.625044	-125.484321	494.783010	1338.209652	-423.965136	NaN	NaN	NaN	NaN	NaN	NaN	575.695675	1065.927092	-30.502006	736.516409	861.425659	-67.767721	592.301056	1072.131157	-475.861109	NaN	NaN	NaN	-74.650198	1153.302942	-244.188338	125.608410	1157.095664	-454.014703	93.238936	1137.441786	-93.754521	88.864990	1099.062169	-394.436307	109.359723	1084.171464	-113.361520	-40.940162	1188.422322	-189.464460	-45.373705	1192.600046	-296.167560	17.609743	1023.331042	-59.299288	26.321809	1049.514426	-455.530867	80.815035	898.669398	-40.178746	125.752023	829.758268	-49.309917	169.226023	751.748753	-65.137654	172.493605	858.140910	-62.810367	200.037019	648.591856	-90.716522	139.898862	544.384248	-59.327591	114.785767	463.498415	-63.316625	79.645804	382.026507	-77.185933	159.859765	449.113805	-100.765953	28.731968	263.847609	-100.103063	NaN	NaN	NaN	NaN	NaN	NaN	NaN	NaN	NaN	NaN	NaN	NaN	NaN	NaN	NaN	NaN	NaN	NaN	NaN	NaN	NaN	NaN	NaN	NaN	NaN	NaN	NaN	NaN	NaN	NaN	NaN	NaN	NaN	NaN	NaN	NaN	NaN	NaN	NaN	NaN	NaN	NaN	NaN	NaN	NaN	137.423017	525.404463	-361.188908	NaN	NaN	NaN	NaN	NaN	NaN	NaN	NaN	NaN	-11.998594	84.752282	-453.727749	-20.262819	81.013803	-53.490847	
4	0.0200	494.098087	1327.620818	-125.477084	495.081759	1337.703068	-424.159672	NaN	NaN	NaN	NaN	NaN	NaN	575.436433	1065.918439	-30.230232	736.513805	861.409909	-67.779120	592.756890	1072.245163	-475.328677	NaN	NaN	NaN	-75.048559	1153.619632	-240.575935	125.616193	1157.138137	-454.095138	93.262289	1137.561280	-93.767421	88.848501	1099.055871	-394.447450	110.166974	1083.990909	-112.812455	-40.883743	1188.398755	-189.400238	-45.450766	1192.519219	-296.168572	17.561400	1023.204795	-59.272683	26.297597	1049.532045	-455.550110	80.905636	898.755454	-39.850670	125.733799	829.762155	-49.307208	169.230787	751.744341	-65.138692	172.478723	858.144949	-62.818410	199.955806	648.665764	-90.689829	139.886988	544.397128	-59.337352	114.796072	463.512572	-63.311563	79.643236	382.037206	-77.195227	159.859583	449.122668	-100.759107	28.634681	263.920028	-100.057676	NaN	NaN	NaN	NaN	NaN	NaN	NaN	NaN	NaN	NaN	NaN	NaN	NaN	NaN	NaN	NaN	NaN	NaN	NaN	NaN	NaN	NaN	NaN	NaN	NaN	NaN	NaN	NaN	NaN	NaN	NaN	NaN	NaN	NaN	NaN	NaN	NaN	NaN	NaN	NaN	NaN	NaN	NaN	NaN	NaN	137.427950	525.391355	-361.196128	NaN	NaN	NaN	NaN	NaN	NaN	NaN	NaN	NaN	-11.997829	84.757615	-453.723083	-20.245734	81.039776	-53.476457	
5	0.0250	494.143101	1327.636326	-125.460460	494.999631	1337.499498	-424.254938	NaN	NaN	NaN	NaN	NaN	NaN	573.597500	1066.316569	-29.086330	736.492281	861.519987	-67.628005	592.460880	1072.217457	-475.813368	NaN	NaN	NaN	-74.751126	1153.257317	-240.156606	125.625188	1157.177068	-454.169819	93.255953	1137.559885	-93.755700	89.274695	1099.739264	-395.164649	110.121808	1083.982046	-112.839467	-40.897863	1188.314598	-189.416620	-45.511308	1192.451665	-296.167075	17.469728	1023.081374	-59.219070	26.268804	1049.553712	-455.618228	80.914029	898.724594	-39.919677	125.678113	829.686769	-49.325507	169.164066	751.731993	-65.111182	172.485357	858.162719	-62.788133	199.924023	648.661914	-90.794898	139.865410	544.412317	-59.438493	114.763019	463.527425	-63.300021	79.631513	382.054340	-77.196879	159.882739	449.094267	-100.808910	28.677185	263.953064	-100.167676	NaN	NaN	NaN	NaN	NaN	NaN	NaN	NaN	NaN	NaN	NaN	NaN	NaN	NaN	NaN	NaN	NaN	NaN	NaN	NaN	NaN	NaN	NaN	NaN	NaN	NaN	NaN	NaN	NaN	NaN	NaN	NaN	NaN	NaN	NaN	NaN	NaN	NaN	NaN	NaN	NaN	NaN	NaN	NaN	NaN	137.450305	525.395567	-361.227396	NaN	NaN	NaN	NaN	NaN	NaN	NaN	NaN	NaN	-11.750952	84.918802	-453.828873	-20.253730	81.057271	-53.344166	
6	0.0300	494.124829	1327.693964	-125.380553	495.732767	1338.076879	-424.066309	NaN	NaN	NaN	NaN	NaN	NaN	575.447065	1065.913447	-30.308291	736.513548	861.430937	-67.686930	592.155015	1072.072306	-475.814655	NaN	NaN	NaN	-75.262620	1153.855968	-240.476750	125.635294	1157.212562	-454.238888	93.255734	1137.538569	-93.745665	90.101396	1101.046582	-396.520362	110.147546	1083.998582	-112.812748	-40.881597	1188.436878	-189.356798	-45.556620	1192.396543	-296.163390	17.595015	1023.239069	-59.296041	26.326914	1049.562293	-455.540621	80.918967	898.709084	-39.950594	125.737078	829.779910	-49.340670	169.210310	751.802554	-65.196736	172.492284	858.171925	-62.764928	199.936666	648.702607	-90.630137	139.859592	544.426597	-59.319096	114.765513	463.574121	-63.288638	79.634772	382.070511	-77.198413	159.921330	449.139101	-100.769484	28.566020	263.976249	-99.991580	NaN	NaN	NaN	NaN	NaN	NaN	NaN	NaN	NaN	NaN	NaN	NaN	NaN	NaN	NaN	NaN	NaN	NaN	NaN	NaN	NaN	NaN	NaN	NaN	NaN	NaN	NaN	NaN	NaN	NaN	NaN	NaN	NaN	NaN	NaN	NaN	NaN	NaN	NaN	NaN	NaN	NaN	NaN	NaN	NaN	137.424095	525.378780	-361.195443	NaN	NaN	NaN	NaN	NaN	NaN	NaN	NaN	NaN	-13.045170	85.859949	-453.936715	-20.141607	80.812644	-53.528985	
7	0.0350	494.144156	1327.703763	-125.331498	495.695263	1338.080147	-424.112093	NaN	NaN	NaN	NaN	NaN	NaN	573.931216	1066.139466	-29.404027	736.502402	861.445005	-67.678942	592.065550	1072.015102	-475.895501	NaN	NaN	NaN	-75.284553	1153.911735	-240.522995	125.646412	1157.244725	-454.302492	93.286217	1137.536635	-93.723629	91.286425	1102.912056	-398.447046	110.104296	1084.001867	-112.864319	-40.858705	1188.467299	-189.332480	-45.587992	1192.353013	-296.157841	17.609874	1023.268418	-59.281039	26.325971	1049.584761	-455.523353	80.914459	898.715084	-39.947356	125.754024	829.798579	-49.345164	169.207190	751.808330	-65.217755	172.491762	858.175382	-62.757086	199.919693	648.712537	-90.610116	139.870814	544.440509	-59.307466	114.756528	463.576891	-63.295742	79.629162	382.097452	-77.172122	159.922599	449.146859	-100.796141	28.558411	263.980894	-99.963629	NaN	NaN	NaN	NaN	NaN	NaN	NaN	NaN	NaN	NaN	NaN	NaN	NaN	NaN	NaN	NaN	NaN	NaN	NaN	NaN	NaN	NaN	NaN	NaN	NaN	NaN	NaN	NaN	NaN	NaN	NaN	NaN	NaN	NaN	NaN	NaN	NaN	NaN	NaN	NaN	NaN	NaN	NaN	NaN	NaN	137.429477	525.363839	-361.181815	NaN	NaN	NaN	NaN	NaN	NaN	NaN	NaN	NaN	-13.052344	85.837786	-453.940968	-20.110841	80.747748	-53.555295	
